<svg width="162" height="24" viewBox="0 0 162 24" fill="none" xmlns="http://www.w3.org/2000/svg">
<path d="M60.656 16.759C60.5772 17.7579 60.2552 18.7223 59.718 19.568C59.1884 20.3956 58.4994 21.1095 57.691 21.668C56.8431 22.251 55.9048 22.6903 54.914 22.968C53.8779 23.2654 52.8049 23.4153 51.727 23.413C51.3464 23.4149 50.9663 23.3875 50.59 23.331C50.27 23.2827 49.9532 23.216 49.641 23.131C49.3596 23.053 49.1213 22.9787 48.926 22.908C48.7845 22.8612 48.6474 22.8023 48.516 22.732C48.3827 22.6603 48.2666 22.5603 48.176 22.439C48.0801 22.2896 48.0275 22.1165 48.024 21.939C48.0106 21.8419 48.0029 21.744 48.001 21.646C48.0013 21.5711 48.009 21.4964 48.024 21.423C48.0393 21.345 48.0666 21.2397 48.106 21.107C48.1453 20.9743 48.196 20.7907 48.258 20.556C48.2893 20.4153 48.4103 19.974 48.621 19.232C48.8316 18.49 49.0856 17.5837 49.383 16.513C49.6796 15.443 50.004 14.283 50.356 13.033C50.708 11.783 51.048 10.572 51.376 9.40001C51.704 8.22801 52.001 7.16935 52.267 6.22401C52.533 5.27868 52.7283 4.57868 52.853 4.12401C52.6343 4.28001 52.4193 4.44401 52.208 4.61601C51.9966 4.78801 51.7816 4.97568 51.563 5.17901C51.4798 5.27664 51.3712 5.3492 51.2491 5.38859C51.1271 5.42797 50.9965 5.43262 50.872 5.40201C50.7497 5.3552 50.6414 5.27789 50.5573 5.17742C50.4733 5.07696 50.4164 4.95668 50.392 4.82801C50.3599 4.66537 50.3365 4.50114 50.322 4.33601C50.3069 4.1761 50.3109 4.01497 50.334 3.85601C50.3593 3.67092 50.419 3.49219 50.51 3.32901C50.9966 3.0307 51.5016 2.7635 52.022 2.52901C52.514 2.31035 52.9866 2.11501 53.44 1.94301C53.5094 1.72333 53.6164 1.5173 53.756 1.33401C53.8507 1.21054 53.9757 1.11373 54.119 1.05301C54.2466 1.00557 54.3838 0.989449 54.519 1.00601C54.6596 1.02135 54.808 1.04468 54.964 1.07601C55.2202 1.10878 55.4588 1.22389 55.644 1.40401C55.8626 1.37268 56.0736 1.34935 56.277 1.33401C56.4803 1.31868 56.6913 1.31101 56.91 1.31101C57.7131 1.29536 58.5132 1.41434 59.277 1.66301C59.8873 1.86173 60.4498 2.18486 60.929 2.61201C61.3477 2.99379 61.6657 3.47294 61.855 4.00701C62.0438 4.54844 62.1158 5.12376 62.066 5.69501C62.0098 6.24741 61.8716 6.78834 61.656 7.30001C61.4172 7.87842 61.1154 8.42875 60.756 8.94101C60.3639 9.50057 59.925 10.0258 59.444 10.511C58.9343 11.0272 58.3772 11.4942 57.78 11.906C58.2506 12.1766 58.6839 12.5074 59.069 12.89C59.4347 13.2527 59.7501 13.6626 60.007 14.109C60.249 14.5266 60.4304 14.9764 60.546 15.445C60.651 15.8746 60.6881 16.318 60.656 16.759ZM52.898 11.017C52.8666 11.173 52.8316 11.3293 52.793 11.486C52.7543 11.6427 52.7113 11.8067 52.664 11.978C52.9354 11.7235 53.2594 11.5317 53.613 11.416C54.0191 11.2522 54.4521 11.1651 54.89 11.159C55.1015 11.1585 55.3128 11.1702 55.523 11.194C55.723 11.2173 55.9183 11.2447 56.109 11.276C56.5765 10.9692 57.0021 10.6027 57.375 10.186C57.777 9.74603 58.1341 9.26698 58.441 8.75601C58.7394 8.26108 58.9905 7.7391 59.191 7.19701C59.3726 6.7216 59.4946 6.22547 59.554 5.72001C59.6294 5.30351 59.6195 4.87602 59.5247 4.46347C59.43 4.05093 59.2525 3.66191 59.003 3.32001C58.7549 3.05285 58.4508 2.84392 58.1125 2.70819C57.7741 2.57247 57.4099 2.51333 57.046 2.53501C56.4476 2.53961 55.854 2.64092 55.288 2.83501C55.1633 3.24101 55.007 3.74501 54.819 4.34701C54.631 4.94901 54.431 5.60901 54.219 6.32701L53.551 8.60001C53.319 9.39668 53.1013 10.2013 52.898 11.014V11.017ZM52.498 12.564C52.2793 13.408 52.0606 14.322 51.842 15.306C51.642 16.15 51.4233 17.1303 51.186 18.247L50.436 21.821C50.5453 21.9061 50.6742 21.9625 50.811 21.985L51.28 22.079C51.4659 22.1115 51.6543 22.1272 51.843 22.126C52.5791 22.1194 53.3072 21.9721 53.988 21.692C54.7197 21.3987 55.3961 20.9827 55.988 20.462C56.6124 19.9133 57.1336 19.2573 57.527 18.525C57.9493 17.7388 58.2008 16.8722 58.265 15.982C58.2994 15.6011 58.2717 15.2171 58.183 14.845C58.1031 14.5237 57.9767 14.2158 57.808 13.931C57.6512 13.6666 57.4624 13.4224 57.246 13.204C57.042 12.9988 56.8183 12.8142 56.578 12.653C55.8229 13.0593 55.0293 13.3895 54.209 13.639C53.9741 13.7154 53.7231 13.7275 53.482 13.674C53.2932 13.6266 53.1171 13.5386 52.966 13.416C52.8293 13.3037 52.7176 13.164 52.638 13.006C52.5659 12.8663 52.5192 12.715 52.5 12.559L52.498 12.564ZM62.342 18.587C63.0293 15.6963 63.58 13.376 63.994 11.626C64.408 9.87601 64.7243 8.54001 64.943 7.61801C65.193 6.52401 65.365 5.76635 65.459 5.34501C65.5056 5.04835 65.5446 4.75935 65.576 4.47801C65.6077 4.22157 65.6234 3.96341 65.623 3.70501C65.6253 3.46089 65.6018 3.21721 65.553 2.97801C65.6812 2.89859 65.819 2.83576 65.963 2.79101C66.1116 2.74435 66.2563 2.70535 66.397 2.67401C66.569 2.62735 66.741 2.58835 66.913 2.55701C67.0676 2.5274 67.2246 2.51167 67.382 2.51001C67.5002 2.50923 67.6182 2.52096 67.734 2.54501C67.7792 2.55017 67.8224 2.56686 67.8593 2.59347C67.8963 2.62009 67.9258 2.65574 67.945 2.69701C67.9996 2.76094 68.0394 2.83609 68.0617 2.91714C68.084 2.9982 68.0882 3.08316 68.074 3.16601C68.066 3.40068 68.0463 3.64301 68.015 3.89301C67.9523 4.18968 67.882 4.51001 67.804 4.85401C67.6166 5.52601 67.359 6.49468 67.031 7.76001C66.7496 8.83535 66.3706 10.3017 65.894 12.159C65.4173 14.0163 64.8196 16.361 64.101 19.193C64.0233 19.2717 63.9264 19.3289 63.82 19.359C63.7226 19.3883 63.6217 19.4041 63.52 19.406C63.4023 19.4056 63.2847 19.398 63.168 19.383C63.0534 19.3494 62.9432 19.3021 62.84 19.242C62.7369 19.1714 62.6426 19.0888 62.559 18.996C62.4546 18.8782 62.3805 18.7368 62.343 18.584L62.342 18.587ZM70.85 19.337C70.3506 19.3552 69.8537 19.258 69.398 19.053C69.0561 18.8914 68.7555 18.654 68.519 18.359C68.3127 18.0947 68.1614 17.7917 68.074 17.468C67.9929 17.1819 67.9495 16.8864 67.945 16.589C67.9472 16.0908 67.9863 15.5934 68.062 15.101C68.14 14.5777 68.2336 14.0933 68.343 13.648C68.4523 13.2027 68.55 12.8237 68.636 12.511C68.722 12.1983 68.7806 12.003 68.812 11.925C68.9368 11.5055 69.1224 11.1066 69.363 10.741C69.5882 10.4062 69.9242 10.1615 70.312 10.05C70.468 10.0187 70.632 9.98735 70.804 9.95601C70.9481 9.94034 71.093 9.93266 71.238 9.93301C71.3778 9.93143 71.5167 9.95515 71.648 10.003C71.226 11.081 70.8926 11.981 70.648 12.703C70.4033 13.425 70.221 14.0103 70.101 14.459C69.9823 14.8656 69.8961 15.2809 69.843 15.701C69.7422 16.2391 69.8077 16.7951 70.031 17.295C70.1685 17.4903 70.3572 17.6439 70.5763 17.739C70.7954 17.834 71.0364 17.8669 71.273 17.834C71.7052 17.8243 72.1202 17.6625 72.445 17.377C72.8489 17.0391 73.1968 16.6395 73.476 16.193C73.4288 15.9381 73.4053 15.6793 73.406 15.42C73.4055 14.9301 73.4486 14.4412 73.535 13.959C73.621 13.4823 73.721 13.037 73.835 12.623C73.9398 12.2455 74.065 11.874 74.21 11.51C74.3433 11.182 74.4566 10.9243 74.55 10.737C74.6442 10.4701 74.8058 10.2321 75.019 10.046C75.2306 9.94267 75.4635 9.8906 75.699 9.89401C75.8036 9.87897 75.9095 9.87495 76.015 9.88201C76.0901 9.888 76.1646 9.8997 76.238 9.91701C76.4253 9.96368 76.519 10.0573 76.519 10.198C76.519 10.448 76.5033 10.823 76.472 11.323C76.4364 11.8476 76.3421 12.3665 76.191 12.87C76.0816 13.3073 75.9763 13.6783 75.875 13.983C75.7736 14.2877 75.676 14.5453 75.582 14.756C75.5051 14.9366 75.411 15.1094 75.301 15.272L75.043 15.635C75.0743 16.1017 75.1133 16.4767 75.16 16.76C75.1901 16.9818 75.2492 17.1987 75.336 17.405C75.3881 17.5298 75.4784 17.6348 75.594 17.705C75.6986 17.7605 75.8156 17.7887 75.934 17.787C76.2176 17.7621 76.4871 17.6519 76.707 17.471C77.0374 17.2306 77.3471 16.963 77.633 16.671C77.953 16.351 78.2733 15.9993 78.594 15.616C78.9146 15.2327 79.2076 14.8693 79.473 14.526C79.7396 14.182 79.9663 13.882 80.153 13.626C80.3396 13.37 80.457 13.21 80.505 13.146C80.5824 13.0305 80.6924 12.9407 80.821 12.888C80.8613 12.8712 80.9055 12.8655 80.9488 12.8717C80.9921 12.8779 81.0329 12.8956 81.067 12.923C81.1008 12.9569 81.1275 12.9971 81.1455 13.0414C81.1636 13.0857 81.1725 13.1332 81.172 13.181C81.1751 13.3174 81.1386 13.4518 81.067 13.568C80.7197 14.2213 80.333 14.8528 79.909 15.459C79.4611 16.1067 78.9675 16.7216 78.432 17.299C77.9545 17.8194 77.4247 18.2892 76.851 18.701C76.4213 19.0395 75.8972 19.2362 75.351 19.264C75.1622 19.2734 74.9737 19.2391 74.8003 19.1638C74.6268 19.0886 74.4731 18.9743 74.351 18.83C74.0655 18.4557 73.8546 18.03 73.73 17.576C73.4098 18.098 72.9773 18.5422 72.464 18.876C71.9813 19.1802 71.4214 19.3392 70.851 19.334L70.85 19.337ZM89.809 14.084C89.326 14.7878 88.7933 15.4562 88.215 16.084C87.6383 16.7165 87.0069 17.2968 86.328 17.818C85.6995 18.3067 85.0166 18.7211 84.293 19.053C83.6584 19.3518 82.9673 19.5117 82.266 19.522C81.8821 19.5133 81.5036 19.4294 81.152 19.275C80.7389 19.1008 80.3674 18.8411 80.062 18.513C79.7092 18.1279 79.4417 17.6726 79.277 17.177C79.0722 16.5341 79.0121 15.8539 79.101 15.185C79.1829 14.4799 79.3859 13.7942 79.701 13.158C80.0311 12.4561 80.4484 11.7986 80.943 11.201C81.4168 10.6241 81.9792 10.1259 82.609 9.72501C83.1607 9.35463 83.8076 9.15117 84.472 9.13901C84.7061 9.11717 84.9422 9.14557 85.1645 9.22231C85.3868 9.29905 85.5902 9.42237 85.761 9.58401C85.8925 9.73334 85.9914 9.9085 86.0513 10.0983C86.1113 10.288 86.1309 10.4882 86.109 10.686C86.0669 11.155 85.9272 11.6101 85.699 12.022C85.4769 12.4214 85.205 12.791 84.89 13.122C84.5815 13.4458 84.247 13.7438 83.89 14.013C83.5386 14.2797 83.2053 14.522 82.89 14.74C82.546 14.9747 82.218 15.1973 81.906 15.408C81.594 15.6187 81.3206 15.81 81.086 15.982C81.0902 16.3208 81.162 16.6553 81.297 16.966C81.4069 17.2112 81.5666 17.4309 81.766 17.611C81.9547 17.7741 82.1775 17.893 82.418 17.959C82.6578 18.0288 82.9062 18.0642 83.156 18.064C83.7452 18.0481 84.3196 17.8755 84.82 17.564C85.4228 17.2106 85.9918 16.8025 86.52 16.345C87.0634 15.8797 87.5795 15.3836 88.066 14.859C88.5426 14.3437 88.9373 13.8983 89.25 13.523C89.3355 13.4131 89.4551 13.3347 89.59 13.3C89.6374 13.2866 89.6872 13.2838 89.7358 13.2919C89.7844 13.3001 89.8305 13.3189 89.871 13.347C89.9091 13.3825 89.9384 13.4264 89.9566 13.4751C89.9748 13.5239 89.9814 13.5762 89.976 13.628C89.9641 13.7926 89.9062 13.9506 89.809 14.084ZM83.809 10.475C83.5628 10.498 83.3296 10.5961 83.141 10.756C82.8453 10.9831 82.588 11.2563 82.379 11.565C82.1013 11.9691 81.8667 12.4011 81.679 12.854C81.4454 13.4141 81.2802 14.0004 81.187 14.6C81.3743 14.4593 81.5773 14.3147 81.796 14.166C82.0146 14.0173 82.2333 13.8573 82.452 13.686C82.9867 13.306 83.461 12.8475 83.859 12.326C84.0863 12.0301 84.2404 11.6848 84.309 11.318C84.3537 11.0986 84.3204 10.8705 84.215 10.673C84.1701 10.6078 84.1092 10.5553 84.038 10.5206C83.9669 10.4859 83.888 10.4702 83.809 10.475ZM95.39 23.389C95.1517 23.4202 94.9096 23.3747 94.699 23.259C94.613 23.173 94.6013 23.0063 94.664 22.759C94.6793 22.681 94.7573 22.3333 94.898 21.716C95.0386 21.0987 95.2143 20.3463 95.425 19.459C95.6363 18.579 95.8643 17.6233 96.109 16.592C96.3536 15.5607 96.584 14.592 96.8 13.686C96.5548 13.7286 96.3025 13.7001 96.073 13.604C96.0045 13.5749 95.9465 13.5256 95.9067 13.4627C95.8669 13.3999 95.8471 13.3264 95.85 13.252C95.8747 13.0722 95.9674 12.9086 96.109 12.795C96.3167 12.6132 96.5603 12.4769 96.824 12.395C96.9142 12.3542 97.0084 12.3227 97.105 12.301C97.183 12.0343 97.2533 11.761 97.316 11.481C97.3786 11.2463 97.4413 10.9963 97.504 10.731C97.5666 10.4657 97.6276 10.2083 97.687 9.95901L99.328 2.95101C99.3921 2.64532 99.5427 2.3645 99.762 2.14201C100.084 1.90579 100.458 1.74919 100.852 1.68501C101.148 1.593 101.456 1.54943 101.766 1.55601C101.938 1.57935 102.016 1.63001 102 1.70801C101.953 1.88001 101.836 2.29401 101.648 2.95001C101.46 3.60601 101.237 4.40601 100.98 5.35001C100.722 6.29535 100.445 7.33435 100.148 8.46701C99.8513 9.59968 99.5623 10.7207 99.281 11.83C100.218 11.6893 101.359 11.572 102.703 11.478C103.218 11.4187 103.722 11.381 104.214 11.365C104.706 11.349 105.179 11.349 105.632 11.365C105.851 10.521 106.066 9.67735 106.277 8.83401C106.488 7.99068 106.688 7.20935 106.877 6.49001C107.064 5.77135 107.231 5.13468 107.377 4.58001C107.523 4.02535 107.636 3.61535 107.717 3.35001C107.792 3.10249 107.882 2.85972 107.987 2.62301C108.057 2.45672 108.159 2.30561 108.287 2.17801C108.404 2.06914 108.544 1.98902 108.697 1.94401C108.874 1.8927 109.054 1.85361 109.236 1.82701C109.345 1.82701 109.479 1.81935 109.636 1.80401C109.761 1.80401 109.91 1.80001 110.081 1.79201C110.277 1.78552 110.473 1.79723 110.667 1.82701C110.073 3.42101 109.522 5.03435 109.015 6.66701C108.508 8.29968 108.036 9.88935 107.601 11.436C107.882 11.4673 108.128 11.4907 108.339 11.506C108.507 11.5158 108.674 11.5392 108.839 11.576C109.106 11.5868 109.359 11.6933 109.554 11.876C109.655 12.0167 109.62 12.2197 109.449 12.485L109.168 12.837C109.074 12.9623 108.957 13.107 108.816 13.271C108.647 13.4646 108.467 13.6485 108.277 13.822C108.152 13.7753 108.023 13.7283 107.89 13.681C107.757 13.6337 107.63 13.5883 107.509 13.545C107.353 13.4983 107.205 13.4513 107.064 13.404C106.955 13.7793 106.855 14.1427 106.764 14.494C106.673 14.8453 106.585 15.2003 106.5 15.559C106.312 16.3257 106.132 17.1153 105.961 17.928C105.82 18.6307 105.676 19.4077 105.527 20.259C105.378 21.1103 105.265 21.9503 105.187 22.779C105.068 22.8395 104.94 22.883 104.809 22.908C104.684 22.9313 104.574 22.951 104.481 22.967L104.153 23.014H103.853C103.788 23.0132 103.724 22.9971 103.666 22.967C103.586 22.9509 103.508 22.9274 103.432 22.897C103.35 22.8657 103.276 22.838 103.209 22.814C103.131 22.7872 103.056 22.752 102.986 22.709C103.111 22.1937 103.208 21.7093 103.279 21.256C103.35 20.8027 103.4 20.4037 103.429 20.059C103.476 19.6537 103.508 19.2947 103.523 18.982C103.535 18.5334 103.491 18.0851 103.394 17.647C103.29 17.1548 103.133 16.6753 102.925 16.217C102.717 15.7525 102.457 15.3125 102.152 14.905C101.859 14.5099 101.507 14.1619 101.109 13.873C100.774 13.6332 100.396 13.4588 99.996 13.359C99.6463 13.2812 99.2868 13.2575 98.93 13.289C98.8206 13.7557 98.7206 14.2087 98.63 14.648C98.5393 15.0873 98.4613 15.5093 98.396 15.914C98.22 16.8193 98.054 17.701 97.898 18.559C97.772 19.2923 97.6423 20.0547 97.509 20.846C97.3756 21.6373 97.278 22.313 97.216 22.873C96.9904 22.9882 96.7564 23.0861 96.516 23.166C96.3241 23.2293 96.1284 23.28 95.93 23.318C95.7536 23.3637 95.5722 23.3876 95.39 23.389ZM104.672 12.982C104.125 12.92 103.604 12.885 103.109 12.877C102.614 12.869 102.181 12.865 101.809 12.865C102.125 13.0398 102.407 13.2701 102.641 13.545C102.883 13.8263 103.137 14.1467 103.403 14.506C103.655 14.8359 103.861 15.1986 104.015 15.584C104.171 15.9747 104.304 16.3497 104.415 16.709C104.54 16.053 104.673 15.4123 104.815 14.787C104.957 14.1617 105.088 13.5757 105.209 13.029C105.115 13.0137 105.025 13.002 104.939 12.994C104.853 12.986 104.764 12.982 104.672 12.982ZM121.055 14.082C120.572 14.7858 120.039 15.4542 119.461 16.082C118.884 16.7145 118.253 17.2948 117.574 17.816C116.944 18.3056 116.26 18.7207 115.535 19.053C114.901 19.3516 114.21 19.5115 113.509 19.522C113.125 19.5134 112.746 19.4295 112.394 19.275C111.983 19.1005 111.613 18.8412 111.309 18.514C110.954 18.1293 110.685 17.674 110.519 17.178C110.314 16.5351 110.254 15.8549 110.343 15.186C110.425 14.4809 110.628 13.7952 110.943 13.159C111.272 12.4569 111.689 11.799 112.183 11.201C112.656 10.6243 113.218 10.1261 113.847 9.72501C114.398 9.35481 115.045 9.15136 115.709 9.13901C115.943 9.11717 116.179 9.14557 116.402 9.22231C116.624 9.29905 116.827 9.42237 116.998 9.58401C117.13 9.73278 117.229 9.90745 117.29 10.0969C117.351 10.2863 117.371 10.4863 117.35 10.684C117.308 11.153 117.168 11.6081 116.94 12.02C116.718 12.4194 116.446 12.789 116.131 13.12C115.822 13.4438 115.488 13.7418 115.131 14.011C114.78 14.2777 114.446 14.52 114.131 14.738C113.787 14.9727 113.459 15.1953 113.147 15.406C112.835 15.6167 112.562 15.808 112.327 15.98C112.331 16.3188 112.403 16.6533 112.538 16.964C112.648 17.2092 112.808 17.4289 113.007 17.609C113.196 17.7729 113.419 17.8925 113.66 17.959C113.9 18.0288 114.148 18.0642 114.398 18.064C114.987 18.0481 115.562 17.8755 116.062 17.564C116.665 17.2106 117.234 16.8025 117.762 16.345C118.306 15.8797 118.822 15.3836 119.309 14.859C119.786 14.3437 120.18 13.8983 120.493 13.523C120.578 13.4131 120.698 13.3347 120.833 13.3C120.88 13.2872 120.928 13.2847 120.976 13.2926C121.024 13.3006 121.069 13.3188 121.109 13.346C121.147 13.3815 121.176 13.4254 121.195 13.4741C121.213 13.5229 121.219 13.5752 121.214 13.627C121.204 13.7913 121.149 13.9496 121.054 14.084L121.055 14.082ZM115.055 10.473C114.809 10.496 114.576 10.5941 114.387 10.754C114.091 10.9811 113.834 11.2543 113.625 11.563C113.347 11.9671 113.113 12.3991 112.925 12.852C112.69 13.4126 112.523 13.9995 112.429 14.6C112.616 14.4593 112.819 14.3147 113.038 14.166C113.257 14.0173 113.475 13.8573 113.694 13.686C114.228 13.3062 114.702 12.8481 115.1 12.327C115.325 12.0307 115.478 11.6853 115.545 11.319C115.59 11.0996 115.556 10.8715 115.451 10.674C115.407 10.61 115.348 10.5581 115.278 10.5233C115.209 10.4885 115.132 10.4719 115.054 10.475L115.055 10.473ZM131.391 14.293C131.172 14.6057 130.891 14.9923 130.547 15.453C130.203 15.9137 129.847 16.3753 129.48 16.838C129.113 17.2987 128.753 17.7207 128.402 18.104C128.14 18.4057 127.845 18.6771 127.523 18.913C127.353 19.0125 127.172 19.091 126.984 19.147C126.782 19.2075 126.574 19.2451 126.363 19.259C126.162 19.2756 125.96 19.2638 125.763 19.224C125.588 19.1896 125.421 19.1217 125.271 19.024C125.119 18.899 125 18.7396 124.922 18.559C124.828 18.3393 124.753 18.1118 124.699 17.879C124.623 17.5328 124.596 17.1778 124.617 16.824C124.302 17.382 123.88 17.8727 123.375 18.268C122.98 18.5707 122.547 18.8189 122.086 19.006C121.634 19.1726 121.161 19.2736 120.68 19.306C120.431 19.2958 120.189 19.2188 119.98 19.083C119.709 18.9121 119.49 18.6699 119.347 18.383C119.157 17.9948 119.045 17.5726 119.019 17.141C118.982 16.5295 119.046 15.9161 119.207 15.325C119.412 14.4076 119.764 13.5296 120.25 12.725C120.686 11.9973 121.21 11.3256 121.809 10.725C122.297 10.2256 122.858 9.80284 123.473 9.47101C123.883 9.22485 124.353 9.09521 124.832 9.09601C125.197 9.15296 125.547 9.28033 125.863 9.47101C126.089 9.63871 126.244 9.88537 126.297 10.162C126.329 10.5982 126.19 11.0297 125.909 11.365C126.091 11.3242 126.275 11.2929 126.46 11.271C126.609 11.2557 126.722 11.248 126.8 11.248C126.864 11.2433 126.927 11.2511 126.988 11.271C127.008 11.3356 127.016 11.4035 127.011 11.471C127.001 11.6561 126.978 11.8403 126.941 12.022C126.894 12.2887 126.824 12.648 126.73 13.1C126.636 13.552 126.51 14.1383 126.351 14.859C126.32 14.9997 126.292 15.1287 126.269 15.246L126.199 15.598L126.117 16.008L126 16.594C125.984 16.7458 125.98 16.8986 125.988 17.051C125.994 17.2064 126.022 17.3602 126.07 17.508C126.111 17.6399 126.188 17.7577 126.293 17.848C126.418 17.9414 126.572 17.9871 126.727 17.977C126.955 17.9448 127.168 17.8424 127.336 17.684C127.622 17.4558 127.89 17.205 128.136 16.934C128.417 16.6293 128.71 16.2933 129.015 15.926C129.32 15.5587 129.604 15.203 129.867 14.859C130.134 14.515 130.372 14.2103 130.582 13.945C130.792 13.6797 130.944 13.4843 131.039 13.359C131.134 13.2381 131.265 13.1517 131.414 13.113C131.466 13.0983 131.521 13.1005 131.572 13.1194C131.622 13.1383 131.665 13.1728 131.695 13.218C131.762 13.3486 131.774 13.5002 131.73 13.64C131.664 13.8799 131.548 14.1032 131.39 14.295L131.391 14.293ZM124.523 15.326C124.601 15.0133 124.695 14.6467 124.804 14.226C124.913 13.8053 125.007 13.399 125.085 13.007C125.163 12.6163 125.222 12.292 125.261 12.034C125.3 11.776 125.289 11.655 125.226 11.671C125.139 11.689 125.052 11.7124 124.968 11.741C124.871 11.7766 124.77 11.8001 124.668 11.811C124.542 11.8268 124.416 11.8502 124.293 11.881C124.396 11.686 124.469 11.4762 124.509 11.259C124.532 11.1313 124.536 11.0009 124.521 10.872C124.512 10.7795 124.479 10.6908 124.427 10.614C124.255 10.4733 123.955 10.5867 123.527 10.954C122.927 11.5471 122.425 12.2316 122.039 12.982C121.803 13.3926 121.614 13.8287 121.477 14.282C121.344 14.7067 121.246 15.1415 121.184 15.582C121.131 15.9348 121.119 16.2925 121.149 16.648C121.148 16.8626 121.214 17.0722 121.337 17.248C121.411 17.3286 121.502 17.3922 121.603 17.4347C121.704 17.4771 121.813 17.4973 121.923 17.494C122.157 17.4822 122.385 17.4183 122.591 17.307C122.833 17.1794 123.061 17.0262 123.271 16.85C123.489 16.6691 123.692 16.4715 123.879 16.259C124.039 16.0811 124.187 15.8934 124.324 15.697C124.411 15.5854 124.478 15.46 124.523 15.326ZM136.687 14.787C136.281 15.381 135.863 15.959 135.433 16.521C135.003 17.083 134.589 17.587 134.191 18.033C133.852 18.4203 133.484 18.7807 133.089 19.111C132.869 19.3296 132.586 19.4732 132.28 19.521C132.039 19.5199 131.803 19.4554 131.595 19.3341C131.388 19.2128 131.215 19.039 131.096 18.83C130.765 18.3044 130.529 17.7255 130.396 17.119C130.228 16.4033 130.128 15.6734 130.096 14.939C130.056 14.2481 130.06 13.5554 130.108 12.865C130.15 12.3736 130.217 11.8846 130.309 11.4C130.363 11.1019 130.462 10.8136 130.602 10.545C130.7 10.3617 130.846 10.208 131.024 10.1C131.219 9.99434 131.428 9.91563 131.645 9.86601C131.768 9.83234 131.893 9.80892 132.02 9.79601C132.149 9.78005 132.279 9.7841 132.407 9.80801C132.513 9.82372 132.61 9.87738 132.679 9.95901C132.711 10.0113 132.73 10.0708 132.734 10.1321C132.738 10.1935 132.727 10.2549 132.702 10.311C132.671 10.4517 132.62 10.6587 132.55 10.932C132.48 11.2053 132.406 11.514 132.327 11.858C132.248 12.2013 132.176 12.5607 132.109 12.936C132.042 13.3113 131.992 13.6707 131.957 14.014C131.91 14.5326 131.91 15.0544 131.957 15.573C131.992 15.9539 132.062 16.3305 132.168 16.698C132.233 16.942 132.334 17.1749 132.468 17.389C132.577 17.545 132.663 17.623 132.726 17.623C132.804 17.623 132.949 17.5177 133.16 17.307C133.417 17.0433 133.66 16.7655 133.887 16.475C134.16 16.131 134.449 15.731 134.754 15.275C135.059 14.819 135.344 14.3517 135.609 13.873C135.51 13.587 135.47 13.2839 135.492 12.982C135.53 12.4858 135.649 11.9991 135.844 11.541C136.008 11.1501 136.225 10.7834 136.489 10.451C136.701 10.1822 136.954 9.94896 137.239 9.76001C137.442 9.61477 137.681 9.52952 137.93 9.51401C138.336 9.51401 138.59 9.61935 138.692 9.83001C138.792 10.0294 138.828 10.2543 138.797 10.475C138.722 10.9439 138.576 11.3986 138.363 11.823C138.067 12.4632 137.733 13.0853 137.363 13.686C137.441 13.7173 137.527 13.7487 137.621 13.78C137.727 13.8131 137.838 13.829 137.949 13.827C138.436 13.833 138.921 13.7701 139.39 13.64C139.779 13.5312 140.156 13.382 140.515 13.195C140.808 13.0417 141.082 12.857 141.335 12.644C141.562 12.4487 141.745 12.2887 141.886 12.164C141.921 12.123 141.964 12.0893 142.012 12.0651C142.06 12.0409 142.113 12.0266 142.167 12.023C142.251 12.02 142.333 12.0446 142.401 12.093C142.433 12.1179 142.458 12.1501 142.474 12.1868C142.491 12.2236 142.498 12.2638 142.495 12.304C142.485 12.4174 142.435 12.5236 142.354 12.604C141.793 13.2931 141.097 13.8606 140.309 14.272C139.433 14.7103 138.464 14.9276 137.485 14.905C137.367 14.9037 137.25 14.896 137.133 14.882C136.982 14.8639 136.832 14.8321 136.687 14.787ZM150.703 14.087C150.22 14.7908 149.687 15.4592 149.109 16.087C148.532 16.7195 147.901 17.2998 147.222 17.821C146.592 18.3089 145.908 18.7223 145.183 19.053C144.548 19.3518 143.857 19.5117 143.156 19.522C142.772 19.5131 142.394 19.4292 142.043 19.275C141.63 19.1008 141.258 18.8411 140.953 18.513C140.6 18.1279 140.333 17.6726 140.168 17.177C139.963 16.5341 139.903 15.8539 139.992 15.185C140.074 14.4799 140.277 13.7942 140.592 13.158C140.922 12.4561 141.339 11.7986 141.834 11.201C142.307 10.6239 142.869 10.1254 143.498 9.72401C144.049 9.35435 144.695 9.15126 145.359 9.13901C145.593 9.11717 145.829 9.14557 146.052 9.22231C146.274 9.29905 146.477 9.42237 146.648 9.58401C146.78 9.73278 146.879 9.90745 146.94 10.0969C147.001 10.2863 147.021 10.4863 147 10.684C146.958 11.153 146.818 11.6081 146.59 12.02C146.368 12.4194 146.096 12.789 145.781 13.12C145.472 13.4438 145.138 13.7418 144.781 14.011C144.43 14.2777 144.096 14.52 143.781 14.738C143.437 14.9727 143.109 15.1953 142.797 15.406C142.485 15.6167 142.212 15.808 141.977 15.98C141.981 16.3188 142.053 16.6533 142.188 16.964C142.298 17.2092 142.458 17.4289 142.657 17.609C142.846 17.7728 143.068 17.8924 143.309 17.959C143.549 18.0288 143.797 18.0642 144.047 18.064C144.636 18.0481 145.211 17.8755 145.711 17.564C146.314 17.2106 146.883 16.8025 147.411 16.345C147.954 15.8797 148.471 15.3836 148.957 14.859C149.434 14.3437 149.828 13.8983 150.141 13.523C150.226 13.4131 150.346 13.3347 150.481 13.3C150.528 13.2866 150.578 13.2838 150.627 13.2919C150.675 13.3001 150.722 13.3189 150.762 13.347C150.8 13.3825 150.829 13.4264 150.848 13.4751C150.866 13.5239 150.872 13.5762 150.867 13.628C150.856 13.7923 150.799 13.9503 150.703 14.084V14.087ZM144.703 10.478C144.457 10.501 144.224 10.5991 144.035 10.759C143.739 10.9861 143.482 11.2593 143.273 11.568C142.995 11.9721 142.761 12.4041 142.573 12.857C142.339 13.4171 142.174 14.0034 142.081 14.603C142.268 14.4623 142.471 14.3177 142.69 14.169C142.909 14.0203 143.127 13.8603 143.346 13.689C143.88 13.3092 144.354 12.8511 144.752 12.33C144.977 12.0337 145.13 11.6883 145.197 11.322C145.242 11.1026 145.208 10.8745 145.103 10.677C145.059 10.612 144.999 10.5592 144.929 10.5239C144.859 10.4885 144.781 10.4717 144.703 10.475V10.478ZM155.976 19.545C155.656 19.5535 155.338 19.4849 155.05 19.345C154.804 19.2219 154.591 19.0411 154.429 18.818C154.271 18.5908 154.168 18.3299 154.129 18.056C154.083 17.7473 154.099 17.4325 154.176 17.13C154.223 16.9113 154.301 16.6183 154.41 16.251C154.519 15.8837 154.633 15.4837 154.75 15.051C154.867 14.621 154.977 14.1913 155.078 13.762C155.172 13.3766 155.239 12.9849 155.278 12.59C155.313 12.3005 155.297 12.0071 155.231 11.723C155.217 11.6276 155.168 11.5407 155.095 11.4782C155.021 11.4157 154.927 11.3819 154.831 11.383C154.555 11.391 154.288 11.4762 154.058 11.629C153.762 11.8178 153.49 12.0422 153.249 12.297C152.955 12.6031 152.681 12.9281 152.429 13.27C152.156 13.6373 151.886 14.0163 151.62 14.407C151.479 14.9403 151.362 15.4053 151.268 15.802C151.174 16.1987 151.091 16.5597 151.019 16.885C150.949 17.205 150.882 17.4863 150.819 17.729C150.756 17.9717 150.701 18.202 150.655 18.42C150.572 18.6172 150.423 18.779 150.233 18.877C149.997 19.0259 149.746 19.1476 149.483 19.24C149.262 19.3251 149.029 19.3728 148.792 19.381C148.597 19.381 148.515 19.3107 148.546 19.17C148.561 19.076 148.612 18.865 148.698 18.537L148.998 17.377C149.119 16.9317 149.242 16.459 149.367 15.959C149.492 15.459 149.61 14.9823 149.719 14.529C149.797 14.1697 149.883 13.7697 149.977 13.329C150.055 12.9543 150.153 12.517 150.27 12.017C150.387 11.517 150.524 10.97 150.68 10.376C150.783 10.2866 150.897 10.2116 151.02 10.153C151.137 10.0985 151.258 10.0553 151.383 10.024C151.512 9.97612 151.646 9.94455 151.783 9.93001C151.908 9.93196 152.032 9.94165 152.156 9.95901C152.272 9.97609 152.385 10.0035 152.496 10.041C152.611 10.0793 152.719 10.139 152.812 10.217C152.765 10.3263 152.711 10.4787 152.648 10.674C152.585 10.8693 152.523 11.0763 152.461 11.295C152.398 11.545 152.32 11.8027 152.227 12.068C152.443 11.7714 152.673 11.486 152.918 11.213C153.174 10.9256 153.457 10.6628 153.762 10.428C154.061 10.197 154.388 10.0042 154.735 9.85401C155.068 9.70778 155.427 9.63186 155.79 9.63101C156.078 9.6271 156.359 9.71774 156.59 9.88901C156.834 10.0737 157.025 10.3206 157.141 10.604C157.283 10.9506 157.362 11.3197 157.375 11.694C157.393 12.1616 157.333 12.6288 157.199 13.077L156.941 14.108C156.863 14.436 156.765 14.8227 156.648 15.268C156.531 15.7133 156.384 16.2013 156.209 16.732C156.123 17.0208 156.089 17.3224 156.109 17.623C156.132 17.873 156.285 17.998 156.566 17.998C156.967 17.944 157.341 17.7632 157.632 17.482C158.098 17.1035 158.533 16.6882 158.932 16.24C159.369 15.7553 159.783 15.2593 160.174 14.752C160.565 14.2447 160.862 13.8347 161.065 13.522C161.164 13.3584 161.301 13.2212 161.465 13.122C161.507 13.0923 161.557 13.0745 161.608 13.0705C161.66 13.0664 161.712 13.0763 161.758 13.099C161.828 13.1457 161.863 13.251 161.863 13.415C161.848 13.6334 161.784 13.8455 161.676 14.036C161.567 14.2547 161.4 14.5437 161.176 14.903C160.952 15.2623 160.68 15.6457 160.359 16.053C160.046 16.459 159.71 16.869 159.351 17.283C159.004 17.6849 158.628 18.0609 158.226 18.408C157.869 18.7205 157.48 18.9953 157.066 19.228C156.735 19.4244 156.36 19.5335 155.976 19.545Z" fill="white"/>
<path d="M24.683 22.777C23.4313 23.5696 21.9815 23.9934 20.5 24C18.8348 23.989 17.2147 23.4571 15.867 22.479C14.0787 23.4922 12.0553 24.0168 10 24C4.478 24 0 20.418 0 16C0 11.582 4.477 8 10 8C10.5064 7.99975 11.0123 8.03014 11.515 8.091C12.8 3.383 16.337 0 20.5 0C24.64 0 28.161 3.345 29.462 8.011C29.64 8.00367 29.8193 8 30 8C35.523 8 40 11.582 40 16C40 20.418 35.522 24 30 24C28.1567 24.0116 26.336 23.5928 24.683 22.777Z" fill="white"/>
</svg>
