<svg width="522" height="78" viewBox="0 0 522 78" fill="none" xmlns="http://www.w3.org/2000/svg">
<g clip-path="url(#clip0_61_458)">
<path d="M195.158 53.723C194.906 56.9462 193.869 60.0586 192.136 62.788C190.428 65.4529 188.206 67.7512 185.601 69.549C182.868 71.4293 179.843 72.846 176.649 73.742C173.308 74.7016 169.849 75.185 166.373 75.178C165.147 75.1843 163.922 75.096 162.709 74.914C161.677 74.7593 160.656 74.5449 159.649 74.272C158.742 74.02 157.976 73.7807 157.349 73.554C156.893 73.4033 156.451 73.2136 156.027 72.987C155.596 72.7564 155.22 72.4342 154.927 72.043C154.615 71.5579 154.445 70.9955 154.436 70.419C154.392 70.1061 154.367 69.7909 154.36 69.475C154.362 69.2338 154.387 68.9933 154.436 68.757C154.487 68.505 154.575 68.165 154.7 67.737C154.825 67.309 154.989 66.7173 155.191 65.962C155.292 65.5087 155.682 64.086 156.362 61.694C157.042 59.302 157.86 56.381 158.817 52.931C159.774 49.481 160.819 45.7417 161.952 41.713C163.085 37.6843 164.182 33.779 165.242 29.997C166.299 26.2197 167.256 22.8077 168.113 19.761C168.97 16.7143 169.599 14.4607 170.002 13C169.297 13.5033 168.604 14.032 167.925 14.586C167.246 15.14 166.553 15.7443 165.848 16.399C165.58 16.714 165.229 16.948 164.836 17.0748C164.442 17.2016 164.021 17.2163 163.619 17.117C163.226 16.9663 162.877 16.7176 162.606 16.3946C162.336 16.0716 162.152 15.6848 162.073 15.271C161.969 14.7468 161.893 14.2173 161.846 13.685C161.797 13.169 161.81 12.649 161.884 12.136C161.965 11.539 162.158 10.9624 162.451 10.436C164.02 9.47779 165.647 8.61974 167.324 7.86702C168.911 7.16168 170.434 6.53202 171.894 5.97802C172.118 5.26933 172.463 4.60483 172.914 4.01402C173.219 3.61542 173.623 3.30289 174.085 3.10701C174.495 2.95513 174.935 2.90336 175.369 2.95602C175.822 3.00668 176.301 3.08235 176.804 3.18302C177.63 3.28901 178.399 3.6603 178.995 4.24102C179.7 4.14035 180.38 4.06468 181.035 4.01402C181.69 3.96335 182.37 3.93802 183.075 3.93802C185.664 3.88696 188.243 4.26993 190.705 5.07102C192.673 5.7117 194.486 6.75365 196.031 8.13102C197.379 9.36187 198.402 10.9061 199.011 12.627C199.619 14.3716 199.851 16.2253 199.691 18.066C199.511 19.8469 199.067 21.5911 198.373 23.241C197.601 25.1052 196.626 26.8786 195.465 28.529C194.201 30.3332 192.785 32.0267 191.234 33.591C189.591 35.2542 187.795 36.7592 185.87 38.086C187.387 38.9587 188.784 40.0253 190.025 41.259C191.202 42.4279 192.217 43.749 193.043 45.187C193.823 46.5342 194.408 47.9854 194.78 49.497C195.125 50.8774 195.253 52.3033 195.158 53.723ZM170.153 35.215C170.052 35.7183 169.939 36.222 169.813 36.726C169.687 37.23 169.549 37.7587 169.398 38.312C170.273 37.4911 171.318 36.8722 172.458 36.499C173.767 35.97 175.163 35.6883 176.575 35.668C177.257 35.6666 177.938 35.7043 178.615 35.781C179.27 35.8563 179.899 35.9444 180.504 36.045C182.01 35.0559 183.381 33.875 184.583 32.532C185.879 31.1143 187.031 29.5706 188.02 27.924C188.982 26.328 189.791 24.6449 190.436 22.897C191.022 21.3653 191.415 19.7667 191.607 18.138C191.909 14.6627 191.317 12.0817 189.832 10.395C189.033 9.53366 188.052 8.86 186.962 8.42239C185.871 7.98479 184.697 7.7941 183.524 7.86402C181.595 7.88375 179.681 8.21536 177.858 8.84602C177.458 10.1553 176.954 11.7797 176.347 13.719C175.74 15.6583 175.098 17.7873 174.421 20.106C173.741 22.4227 173.023 24.8653 172.268 27.434C171.513 30.0027 170.808 32.5963 170.153 35.215ZM168.873 40.197C168.168 42.9163 167.463 45.8627 166.758 49.036C166.103 51.7553 165.398 54.9157 164.643 58.517L162.226 70.038C162.579 70.3125 162.994 70.4944 163.435 70.567L164.946 70.867C165.545 70.9715 166.151 71.022 166.759 71.018C169.131 70.9962 171.477 70.521 173.671 69.618C176.034 68.6733 178.218 67.3321 180.13 65.652C182.135 63.8874 183.809 61.7794 185.073 59.427C186.435 56.8918 187.246 54.0975 187.453 51.227C187.564 49.9994 187.475 48.762 187.189 47.563C186.931 46.5275 186.524 45.535 185.98 44.617C185.474 43.765 184.865 42.9784 184.167 42.275C183.51 41.6138 182.788 41.0192 182.014 40.5C179.582 41.8073 177.026 42.8702 174.384 43.673C173.627 43.919 172.819 43.958 172.042 43.786C171.434 43.6335 170.867 43.3498 170.38 42.955C169.939 42.5929 169.579 42.1426 169.322 41.633C169.089 41.1845 168.937 40.6984 168.873 40.197ZM200.597 59.616C202.813 50.2987 204.588 42.8197 205.923 37.179C207.258 31.5383 208.278 27.2323 208.983 24.261C209.788 20.735 210.342 18.2923 210.645 16.933C210.797 15.9757 210.923 15.044 211.022 14.138C211.124 13.311 211.174 12.4783 211.173 11.645C211.18 10.8585 211.104 10.0735 210.946 9.30302C211.361 9.04548 211.807 8.84184 212.273 8.69702C212.752 8.54568 213.218 8.41968 213.673 8.31902C214.227 8.16768 214.781 8.04168 215.335 7.94102C215.833 7.84577 216.339 7.79523 216.846 7.79002C217.227 7.78765 217.606 7.82553 217.979 7.90302C218.125 7.91963 218.264 7.97353 218.383 8.05952C218.502 8.14551 218.597 8.26071 218.659 8.39402C218.835 8.59993 218.963 8.84205 219.035 9.10318C219.107 9.36431 219.121 9.63806 219.075 9.90502C219.05 10.6603 218.987 11.441 218.886 12.247C218.686 13.2037 218.459 14.237 218.206 15.347C217.597 17.5137 216.764 20.636 215.706 24.714C214.799 28.1894 213.578 32.9227 212.042 38.914C210.506 44.9053 208.58 52.4607 206.263 61.58C206.011 61.8318 205.699 62.014 205.356 62.109C205.037 62.2046 204.707 62.2554 204.374 62.26C203.995 62.2581 203.617 62.2327 203.241 62.184C202.871 62.0762 202.516 61.9241 202.183 61.731C201.85 61.5034 201.546 61.2372 201.276 60.938C200.947 60.5583 200.714 60.1049 200.597 59.616ZM228.02 62.033C226.41 62.0947 224.807 61.7843 223.336 61.126C222.293 60.643 221.369 59.9353 220.631 59.0537C219.893 58.172 219.36 57.1381 219.068 56.026C218.807 55.1051 218.667 54.1541 218.652 53.197C218.659 51.5899 218.786 49.9855 219.03 48.397C219.282 46.7097 219.584 45.1483 219.937 43.713C220.29 42.2777 220.604 41.0563 220.881 40.049C221.158 39.0417 221.347 38.412 221.448 38.16C221.85 36.8085 222.448 35.5231 223.223 34.345C223.949 33.2651 225.032 32.4758 226.283 32.116C226.786 32.0154 227.315 31.9153 227.869 31.816C228.334 31.7648 228.801 31.7394 229.269 31.74C229.72 31.7353 230.168 31.8122 230.591 31.967C229.231 35.4423 228.161 38.3383 227.38 40.655C226.599 42.9717 226.008 44.8603 225.605 46.321C225.223 47.6304 224.945 48.9679 224.774 50.321C224.447 52.0545 224.657 53.8464 225.374 55.458C226.029 56.6167 227.362 57.196 229.374 57.196C230.767 57.1645 232.104 56.6429 233.151 55.723C234.453 54.6345 235.575 53.3469 236.475 51.908C236.322 51.0858 236.246 50.2513 236.248 49.415C236.249 47.8328 236.391 46.2539 236.673 44.697C236.95 43.1637 237.277 41.7283 237.655 40.391C237.992 39.1721 238.394 37.9724 238.861 36.797C239.289 35.7397 239.656 34.9087 239.961 34.304C240.264 33.4433 240.785 32.6755 241.472 32.075C242.154 31.742 242.904 31.5738 243.663 31.584C244.001 31.5357 244.343 31.5229 244.683 31.546C244.925 31.5654 245.165 31.6032 245.401 31.659C246.006 31.8103 246.308 32.1127 246.308 32.566C246.308 33.372 246.258 34.5807 246.157 36.192C246.042 37.8827 245.738 39.5551 245.25 41.178C244.897 42.588 244.557 43.784 244.23 44.766C243.903 45.748 243.588 46.579 243.286 47.259C243.038 47.8408 242.734 48.3974 242.379 48.921C242.077 49.349 241.8 49.7393 241.548 50.092C241.649 51.6027 241.775 52.8113 241.926 53.718C242.023 54.4322 242.214 55.1306 242.493 55.795C242.658 56.2026 242.949 56.5467 243.324 56.777C243.663 56.9563 244.041 57.0471 244.424 57.041C245.339 56.9605 246.208 56.6049 246.917 56.021C247.981 55.249 248.979 54.3897 249.901 53.452C250.934 52.4193 251.967 51.286 253.001 50.052C254.035 48.818 254.979 47.647 255.834 46.539C256.69 45.431 257.42 44.4617 258.025 43.631C258.63 42.8004 259.007 42.284 259.158 42.082C259.408 41.7095 259.763 41.4202 260.178 41.251C260.308 41.1968 260.45 41.1787 260.59 41.1986C260.73 41.2185 260.861 41.2756 260.971 41.364C261.08 41.4729 261.166 41.6025 261.225 41.7452C261.283 41.8879 261.313 42.0408 261.311 42.195C261.32 42.6344 261.202 43.0671 260.971 43.441C259.849 45.5419 258.6 47.5727 257.232 49.522C255.789 51.6095 254.198 53.5912 252.473 55.452C250.933 57.1344 249.224 58.6534 247.373 59.985C245.988 61.0754 244.298 61.7089 242.538 61.798C241.931 61.8262 241.326 61.7146 240.77 61.4718C240.213 61.2291 239.719 60.8617 239.327 60.398C238.407 59.1914 237.728 57.8191 237.327 56.356C236.296 58.0395 234.902 59.4719 233.248 60.549C231.685 61.5374 229.869 62.0528 228.02 62.033ZM289.136 45.111C287.58 47.3838 285.863 49.5423 283.999 51.57C282.141 53.609 280.106 55.4796 277.918 57.16C275.887 58.7307 273.682 60.0616 271.346 61.126C269.3 62.089 267.072 62.6041 264.811 62.637C263.575 62.6095 262.356 62.34 261.223 61.844C259.892 61.2828 258.695 60.4461 257.71 59.389C256.573 58.1477 255.71 56.6804 255.179 55.083C254.519 53.0106 254.325 50.818 254.612 48.662C254.874 46.3892 255.525 44.1784 256.538 42.127C257.601 39.8647 258.945 37.7454 260.538 35.819C262.063 33.9594 263.874 32.3532 265.902 31.06C267.681 29.8659 269.766 29.21 271.908 29.171C272.663 29.1006 273.424 29.1922 274.141 29.4397C274.857 29.6871 275.512 30.0848 276.063 30.606C276.489 31.0863 276.81 31.6503 277.005 32.2618C277.2 32.8733 277.265 33.5188 277.196 34.157C277.06 35.6689 276.609 37.1355 275.873 38.463C275.16 39.7517 274.286 40.9449 273.273 42.014C272.282 43.0567 271.209 44.0169 270.062 44.885C268.929 45.741 267.858 46.5217 266.851 47.227C265.743 47.9823 264.685 48.7 263.678 49.38C262.671 50.06 261.789 50.6767 261.033 51.23C261.046 52.3224 261.278 53.4011 261.713 54.403C262.067 55.1926 262.582 55.8999 263.224 56.48C263.824 57.0066 264.533 57.3935 265.301 57.613C266.074 57.8386 266.876 57.9531 267.681 57.953C269.582 57.8979 271.433 57.3373 273.045 56.329C274.987 55.1888 276.821 53.8726 278.522 52.397C280.275 50.894 281.939 49.2913 283.508 47.597C285.041 45.935 286.313 44.4997 287.323 43.291C287.6 42.9362 287.987 42.6835 288.423 42.573C288.579 42.5174 288.747 42.5037 288.91 42.5335C289.073 42.5632 289.225 42.6353 289.351 42.7425C289.477 42.8497 289.573 42.9883 289.629 43.1442C289.685 43.3002 289.699 43.4681 289.669 43.631C289.634 44.1647 289.449 44.6777 289.136 45.111ZM269.796 33.477C269.002 33.5517 268.251 33.8683 267.643 34.384C266.69 35.1157 265.862 35.9956 265.188 36.99C264.289 38.292 263.53 39.6846 262.922 41.145C262.169 42.9504 261.636 44.8401 261.336 46.773C261.941 46.3197 262.595 45.853 263.3 45.373C264.005 44.893 264.71 44.3767 265.415 43.824C267.138 42.5995 268.666 41.1222 269.948 39.442C270.674 38.488 271.166 37.3764 271.383 36.197C271.527 35.4909 271.421 34.7564 271.083 34.12C270.941 33.9122 270.748 33.744 270.523 33.6315C270.298 33.519 270.048 33.4658 269.796 33.477ZM307.115 75.102C306.347 75.2037 305.566 75.058 304.886 74.686C304.611 74.4094 304.573 73.8684 304.773 73.063C304.824 72.811 305.075 71.6904 305.528 69.701C305.981 67.7117 306.547 65.2943 307.228 62.449C307.908 59.6037 308.638 56.519 309.419 53.195C310.2 49.871 310.943 46.7483 311.648 43.827C310.858 43.9639 310.046 43.8723 309.306 43.563C309.086 43.4692 308.899 43.3106 308.771 43.1082C308.642 42.9059 308.579 42.6694 308.588 42.43C308.667 41.8509 308.964 41.3238 309.419 40.957C310.088 40.3733 310.871 39.936 311.719 39.673C312.01 39.5424 312.314 39.4418 312.626 39.373C312.878 38.517 313.105 37.6357 313.306 36.729C313.506 35.9737 313.706 35.168 313.906 34.312C314.106 33.456 314.306 32.625 314.506 31.819L319.794 9.23102C320.001 8.24611 320.487 7.34153 321.194 6.62502C322.232 5.86367 323.436 5.35891 324.707 5.15202C325.66 4.85569 326.655 4.71554 327.653 4.73702C328.207 4.81235 328.459 4.97602 328.408 5.22802C328.257 5.78202 327.879 7.11535 327.275 9.22802C326.671 11.3407 325.957 13.9213 325.133 16.97C324.302 20.0167 323.408 23.3657 322.451 27.017C321.494 30.6683 320.56 34.282 319.651 37.858C322.673 37.4047 326.35 37.027 330.681 36.725C332.343 36.525 333.967 36.399 335.554 36.347C337.141 36.295 338.664 36.295 340.124 36.347C340.829 33.6277 341.522 30.908 342.201 28.188C342.88 25.468 343.522 22.95 344.127 20.634C344.732 18.3173 345.273 16.265 345.751 14.477C346.229 12.689 346.596 11.367 346.851 10.511C347.093 9.71365 347.384 8.93157 347.72 8.16902C347.951 7.63139 348.284 7.14396 348.702 6.73402C349.078 6.38275 349.531 6.12421 350.024 5.97902C350.594 5.81328 351.175 5.68699 351.762 5.60102C352.115 5.60102 352.543 5.57568 353.046 5.52502C353.446 5.52502 353.924 5.51235 354.481 5.48702C355.113 5.46614 355.745 5.50397 356.37 5.60002C354.457 10.738 352.682 15.937 351.045 21.197C349.408 26.457 347.884 31.5827 346.473 36.574C347.38 36.6747 348.173 36.7504 348.853 36.801C349.4 36.8322 349.943 36.9082 350.477 37.028C351.337 37.0679 352.153 37.4165 352.777 38.01C353.104 38.4634 352.991 39.118 352.437 39.974L351.53 41.107C351.228 41.507 350.85 41.9737 350.397 42.507C349.851 43.1306 349.271 43.7232 348.659 44.282C348.259 44.1307 347.843 43.9797 347.412 43.829C346.981 43.6783 346.565 43.5273 346.165 43.376C345.662 43.2247 345.183 43.0737 344.73 42.923C344.377 44.1317 344.05 45.3027 343.748 46.436C343.446 47.5694 343.169 48.715 342.917 49.873C342.312 52.3397 341.733 54.883 341.179 57.503C340.726 59.7697 340.259 62.2753 339.779 65.02C339.299 67.7647 338.932 70.4717 338.679 73.141C338.297 73.335 337.89 73.4747 337.47 73.556C337.07 73.6313 336.717 73.6944 336.412 73.745L335.373 73.897H334.391C334.182 73.8941 333.976 73.8424 333.791 73.746C333.533 73.6936 333.28 73.6176 333.036 73.519C332.784 73.4184 332.545 73.3304 332.318 73.255C332.067 73.1681 331.826 73.0541 331.6 72.915C332 71.253 332.315 69.6917 332.544 68.231C332.773 66.7704 332.937 65.486 333.035 64.378C333.186 63.0687 333.286 61.9103 333.335 60.903C333.372 59.4561 333.233 58.01 332.919 56.597C332.239 53.3966 330.875 50.3812 328.919 47.758C327.974 46.4853 326.84 45.3644 325.557 44.434C324.476 43.6591 323.259 43.0952 321.969 42.772C320.842 42.5205 319.683 42.4439 318.532 42.545C318.179 44.0557 317.852 45.5163 317.55 46.927C317.248 48.3377 316.996 49.6973 316.795 51.006C316.241 53.9273 315.712 56.773 315.209 59.543C314.809 61.9103 314.393 64.3657 313.962 66.909C313.531 69.4523 313.216 71.6307 313.018 73.444C312.288 73.8156 311.53 74.1311 310.752 74.388C310.134 74.5923 309.503 74.7563 308.863 74.879C308.292 75.025 307.705 75.0999 307.115 75.102ZM337.031 41.56C335.268 41.36 333.594 41.2467 332.007 41.22C330.42 41.1933 329.023 41.1807 327.814 41.182C328.832 41.7451 329.741 42.4874 330.496 43.373C331.277 44.2797 332.095 45.313 332.951 46.473C333.76 47.5369 334.421 48.706 334.915 49.948C335.418 51.2074 335.846 52.416 336.199 53.574C336.599 51.4587 337.027 49.3937 337.483 47.379C337.939 45.3643 338.367 43.4757 338.767 41.713C338.465 41.6623 338.175 41.6247 337.898 41.6C337.621 41.5753 337.332 41.562 337.031 41.56ZM389.837 45.111C388.281 47.3838 386.564 49.5423 384.7 51.57C382.842 53.609 380.807 55.4796 378.619 57.16C376.588 58.7307 374.383 60.0616 372.047 61.126C370.001 62.089 367.773 62.6041 365.512 62.637C364.276 62.6095 363.057 62.3401 361.924 61.844C360.593 61.2828 359.396 60.4461 358.411 59.389C357.274 58.1477 356.411 56.6804 355.88 55.083C355.22 53.0106 355.026 50.818 355.313 48.662C355.575 46.3892 356.226 44.1784 357.239 42.127C358.302 39.8647 359.646 37.7454 361.239 35.819C362.764 33.9594 364.575 32.3532 366.603 31.06C368.382 29.8659 370.467 29.21 372.609 29.171C373.364 29.1006 374.125 29.1922 374.841 29.4397C375.558 29.6871 376.214 30.0848 376.764 30.606C377.19 31.0863 377.511 31.6503 377.706 32.2618C377.901 32.8733 377.966 33.5188 377.897 34.157C377.761 35.6688 377.311 37.1355 376.575 38.463C375.86 39.7521 374.984 40.9453 373.969 42.014C372.978 43.0567 371.905 44.0169 370.758 44.885C369.625 45.741 368.554 46.5217 367.547 47.227C366.439 47.9823 365.381 48.7 364.374 49.38C363.367 50.06 362.485 50.677 361.73 51.231C361.743 52.3234 361.975 53.4021 362.41 54.404C362.764 55.1936 363.279 55.9009 363.921 56.481C364.521 57.0076 365.23 57.3945 365.998 57.614C366.771 57.8396 367.573 57.9541 368.378 57.954C370.279 57.8989 372.13 57.3383 373.742 56.33C375.686 55.1897 377.52 53.8731 379.223 52.397C380.976 50.894 382.64 49.2913 384.209 47.597C385.742 45.935 387.014 44.4997 388.024 43.291C388.301 42.9362 388.688 42.6835 389.124 42.573C389.28 42.5174 389.448 42.5037 389.611 42.5335C389.774 42.5632 389.926 42.6353 390.052 42.7425C390.178 42.8497 390.274 42.9883 390.33 43.1442C390.386 43.3002 390.4 43.4681 390.37 43.631C390.335 44.1647 390.15 44.6777 389.837 45.111ZM370.498 33.477C369.704 33.5517 368.953 33.8683 368.345 34.384C367.392 35.1157 366.564 35.9956 365.89 36.99C364.992 38.292 364.232 39.6846 363.624 41.145C362.871 42.9504 362.339 44.8401 362.038 46.773C362.643 46.3197 363.297 45.853 364.002 45.373C364.707 44.893 365.412 44.3767 366.117 43.824C367.84 42.5995 369.368 41.1222 370.65 39.442C371.377 38.4871 371.868 37.3744 372.085 36.194C372.229 35.4879 372.123 34.7534 371.785 34.117C371.643 33.9097 371.45 33.7421 371.224 33.6302C370.999 33.5182 370.749 33.4655 370.498 33.477ZM423.153 45.791C422.448 46.7983 421.541 48.0447 420.433 49.53C419.325 51.0153 418.179 52.501 416.996 53.987C415.813 55.473 414.654 56.8327 413.521 58.066C412.677 59.038 411.727 59.9121 410.688 60.672C410.141 60.9929 409.558 61.2464 408.95 61.427C408.3 61.6277 407.629 61.7545 406.95 61.805C406.306 61.8576 405.658 61.8196 405.024 61.692C404.459 61.5821 403.92 61.3641 403.438 61.05C402.944 60.6446 402.556 60.1263 402.305 59.539C402.002 58.8312 401.762 58.098 401.587 57.348C401.343 56.2323 401.254 55.0881 401.323 53.948C400.306 55.7434 398.947 57.3218 397.323 58.594C396.051 59.5701 394.653 60.3706 393.168 60.974C391.712 61.5162 390.185 61.8469 388.635 61.956C387.829 61.9251 387.046 61.677 386.369 61.238C385.494 60.6843 384.788 59.9003 384.329 58.972C383.715 57.7217 383.356 56.3622 383.271 54.972C383.15 53.0007 383.353 51.0229 383.871 49.117C384.531 46.1585 385.666 43.3267 387.233 40.732C388.638 38.382 390.325 36.2129 392.257 34.273C393.831 32.6633 395.64 31.3006 397.621 30.231C398.945 29.4372 400.46 29.0192 402.003 29.022C403.179 29.2056 404.308 29.6162 405.327 30.231C406.057 30.7717 406.557 31.5675 406.727 32.46C406.954 33.442 406.538 34.739 405.481 36.351C406.067 36.2206 406.66 36.1205 407.256 36.051C407.735 36.0004 408.101 35.975 408.356 35.975C408.559 35.9613 408.763 35.9871 408.956 36.051C409.022 36.2583 409.047 36.4761 409.032 36.693C409 37.2894 408.924 37.8827 408.805 38.468C408.654 39.324 408.427 40.4823 408.125 41.943C407.823 43.4037 407.42 45.2924 406.916 47.609C406.815 48.0624 406.727 48.4777 406.652 48.855L406.425 49.988L406.161 51.31L405.773 53.197C405.722 53.6862 405.709 54.1788 405.735 54.67C405.755 55.1708 405.844 55.6665 405.999 56.143C406.131 56.5696 406.379 56.9507 406.717 57.243C407.119 57.5447 407.616 57.6923 408.117 57.659C408.854 57.5556 409.54 57.2257 410.081 56.715C411.001 55.9793 411.86 55.1711 412.65 54.298C413.557 53.316 414.501 52.2333 415.483 51.05C416.465 49.8667 417.384 48.721 418.24 47.613C419.096 46.505 419.863 45.523 420.54 44.667C421.217 43.811 421.708 43.1813 422.013 42.778C422.317 42.3874 422.742 42.1086 423.222 41.985C423.39 41.9372 423.568 41.9445 423.731 42.0057C423.895 42.0668 424.034 42.1788 424.129 42.325C424.344 42.7459 424.384 43.2344 424.242 43.685C424.031 44.456 423.66 45.1737 423.152 45.791H423.153ZM401.018 49.115C401.27 48.1077 401.572 46.924 401.925 45.564C402.278 44.204 402.58 42.8947 402.832 41.636C403.084 40.3767 403.273 39.3317 403.399 38.501C403.525 37.6703 403.487 37.28 403.286 37.33C403.005 37.3885 402.727 37.4643 402.455 37.557C402.138 37.6733 401.809 37.7495 401.473 37.784C401.066 37.8353 400.662 37.9111 400.264 38.011C400.605 37.3851 400.847 36.7106 400.982 36.011C401.055 35.5997 401.068 35.18 401.02 34.765C400.991 34.4673 400.888 34.1817 400.72 33.934C400.166 33.4807 399.197 33.8473 397.812 35.034C395.876 36.9448 394.256 39.1505 393.012 41.569C392.25 42.8932 391.642 44.3 391.199 45.762C390.772 47.1319 390.456 48.5342 390.255 49.955C390.084 51.0924 390.046 52.2458 390.142 53.392C390.139 54.0804 390.349 54.7529 390.742 55.318C390.982 55.5776 391.275 55.7828 391.6 55.9196C391.926 56.0564 392.278 56.1217 392.631 56.111C393.384 56.0738 394.12 55.8688 394.784 55.511C395.565 55.0996 396.299 54.6058 396.975 54.038C397.678 53.4602 398.334 52.8286 398.939 52.149C399.454 51.575 399.934 50.9695 400.374 50.336C400.657 49.9689 400.875 49.5559 401.018 49.115ZM440.226 47.377C438.917 49.291 437.569 51.1543 436.184 52.967C434.799 54.7797 433.465 56.404 432.184 57.84C431.092 59.0884 429.905 60.2502 428.633 61.315C427.926 62.0195 427.013 62.4823 426.027 62.637C425.251 62.6328 424.491 62.4247 423.821 62.0334C423.151 61.6422 422.596 61.0816 422.212 60.408C421.142 58.7161 420.374 56.8515 419.942 54.897C419.397 52.5907 419.068 50.2385 418.96 47.871C418.832 45.6438 418.845 43.4107 418.998 41.185C419.144 39.6004 419.371 38.0243 419.678 36.463C419.852 35.5016 420.17 34.572 420.622 33.706C420.939 33.1148 421.409 32.6193 421.982 32.271C422.612 31.9303 423.284 31.6763 423.982 31.516C424.378 31.4069 424.782 31.331 425.191 31.289C425.606 31.2375 426.026 31.2503 426.437 31.327C426.776 31.3805 427.085 31.5549 427.306 31.818C427.41 31.9863 427.472 32.1776 427.485 32.3751C427.498 32.5726 427.463 32.7703 427.382 32.951C427.281 33.4043 427.118 34.071 426.891 34.951C426.664 35.831 426.425 36.8257 426.173 37.935C425.921 39.043 425.682 40.2013 425.455 41.41C425.228 42.6187 425.065 43.777 424.964 44.885C424.812 46.5562 424.812 48.2378 424.964 49.909C425.075 51.1365 425.303 52.3506 425.644 53.535C425.858 54.3229 426.189 55.0742 426.626 55.764C426.979 56.2673 427.256 56.519 427.457 56.519C427.709 56.519 428.176 56.179 428.857 55.499C429.686 54.6488 430.468 53.7535 431.199 52.817C432.08 51.709 433.014 50.4247 433.999 48.964C434.984 47.5033 435.903 45.9923 436.756 44.431C436.438 43.5093 436.309 42.5327 436.378 41.56C436.501 39.9602 436.884 38.391 437.511 36.914C438.039 35.653 438.736 34.4698 439.583 33.397C440.265 32.5301 441.081 31.7776 442 31.168C442.654 30.6996 443.426 30.4248 444.229 30.375C445.538 30.375 446.357 30.715 446.684 31.395C447.005 32.0369 447.124 32.7612 447.024 33.472C446.783 34.9832 446.311 36.4484 445.624 37.816C444.673 39.8796 443.601 41.8851 442.413 43.822C442.665 43.9227 442.942 44.0227 443.244 44.122C443.586 44.2287 443.943 44.2797 444.302 44.273C445.871 44.2934 447.435 44.0914 448.948 43.673C450.203 43.3219 451.418 42.841 452.574 42.238C453.517 41.7443 454.404 41.1491 455.218 40.463C455.951 39.8337 456.543 39.3173 456.993 38.914C457.106 38.782 457.245 38.6739 457.4 38.5961C457.556 38.5183 457.725 38.4724 457.899 38.461C458.169 38.4513 458.434 38.5312 458.654 38.688C458.755 38.7686 458.836 38.8726 458.888 38.9911C458.94 39.1095 458.963 39.2389 458.954 39.368C458.924 39.7387 458.764 40.0868 458.501 40.35C456.685 42.5685 454.436 44.3937 451.891 45.714C449.07 47.1262 445.945 47.8266 442.791 47.754C442.412 47.749 442.034 47.7236 441.658 47.678C441.173 47.6209 440.693 47.5201 440.226 47.377ZM485.402 45.111C483.846 47.3838 482.129 49.5423 480.265 51.57C478.407 53.609 476.372 55.4796 474.184 57.16C472.153 58.7307 469.948 60.0616 467.612 61.126C465.565 62.0895 463.335 62.6047 461.073 62.637C459.837 62.6095 458.618 62.3401 457.485 61.844C456.154 61.2828 454.957 60.4461 453.972 59.389C452.835 58.1477 451.972 56.6804 451.441 55.083C450.781 53.0106 450.587 50.818 450.874 48.662C451.136 46.3892 451.787 44.1784 452.8 42.127C453.863 39.8647 455.207 37.7454 456.8 35.819C458.325 33.9594 460.136 32.3532 462.164 31.06C463.944 29.8653 466.03 29.2094 468.173 29.171C468.928 29.1006 469.689 29.1922 470.406 29.4397C471.122 29.6871 471.778 30.0848 472.328 30.606C472.754 31.0863 473.075 31.6503 473.27 32.2618C473.465 32.8733 473.53 33.5188 473.461 34.157C473.325 35.6688 472.875 37.1355 472.139 38.463C471.424 39.7521 470.548 40.9453 469.533 42.014C468.542 43.0567 467.469 44.0169 466.322 44.885C465.189 45.741 464.118 46.5217 463.111 47.227C462.003 47.9823 460.945 48.7 459.938 49.38C458.931 50.06 458.049 50.677 457.294 51.231C457.307 52.3234 457.539 53.4021 457.974 54.404C458.328 55.1936 458.843 55.9009 459.485 56.481C460.085 57.0077 460.795 57.3947 461.563 57.614C462.336 57.8396 463.138 57.9541 463.943 57.954C465.844 57.8989 467.695 57.3383 469.307 56.33C471.249 55.1911 473.082 53.8762 474.784 52.402C476.537 50.899 478.201 49.2963 479.77 47.602C481.303 45.94 482.575 44.5047 483.585 43.296C483.862 42.9412 484.249 42.6885 484.685 42.578C484.841 42.5224 485.009 42.5087 485.172 42.5385C485.335 42.5682 485.487 42.6403 485.613 42.7475C485.74 42.8547 485.835 42.9933 485.891 43.1492C485.947 43.3052 485.961 43.4731 485.931 43.636C485.896 44.1676 485.713 44.6787 485.402 45.111ZM466.062 33.477C465.268 33.5517 464.517 33.8683 463.909 34.384C462.957 35.1157 462.128 35.9956 461.454 36.99C460.556 38.292 459.796 39.6846 459.188 41.145C458.435 42.9504 457.903 44.8401 457.602 46.773C458.207 46.3197 458.861 45.853 459.566 45.373C460.271 44.893 460.976 44.3767 461.681 43.824C463.404 42.5995 464.932 41.1222 466.214 39.442C466.941 38.4872 467.433 37.3744 467.649 36.194C467.793 35.4879 467.687 34.7534 467.349 34.117C467.207 33.9097 467.014 33.7421 466.788 33.6302C466.563 33.5182 466.313 33.4655 466.062 33.477ZM502.399 62.713C501.367 62.7411 500.344 62.5209 499.415 62.071C498.621 61.6737 497.935 61.0905 497.415 60.371C496.901 59.6403 496.565 58.7996 496.433 57.916C496.285 56.9212 496.336 55.9068 496.584 54.932C496.735 54.2267 496.987 53.2823 497.339 52.099C497.691 50.9157 498.058 49.6314 498.439 48.246C498.817 46.8614 499.17 45.4763 499.497 44.091C499.8 42.8488 500.015 41.5866 500.139 40.314C500.253 39.379 500.202 38.4313 499.988 37.514C499.945 37.2054 499.791 36.923 499.555 36.7203C499.318 36.5176 499.015 36.4087 498.704 36.414C497.815 36.4395 496.951 36.7143 496.211 37.207C495.258 37.8156 494.382 38.5386 493.605 39.36C492.656 40.3462 491.773 41.3935 490.961 42.495C490.08 43.6783 489.211 44.8997 488.355 46.159C487.902 47.8717 487.524 49.37 487.222 50.654C486.92 51.938 486.656 53.0963 486.429 54.129C486.202 55.1617 485.988 56.0683 485.787 56.849C485.586 57.6297 485.409 58.3727 485.258 59.078C484.992 59.7135 484.51 60.235 483.898 60.551C483.137 61.0349 482.323 61.4308 481.473 61.731C480.76 62.005 480.007 62.1581 479.244 62.184C478.615 62.184 478.35 61.9573 478.451 61.504C478.501 61.202 478.665 60.522 478.942 59.464C479.219 58.406 479.547 57.1597 479.924 55.725C480.302 54.2897 480.692 52.7663 481.095 51.155C481.498 49.5437 481.875 48.0077 482.228 46.547C482.48 45.3884 482.757 44.104 483.059 42.694C483.311 41.4853 483.626 40.075 484.003 38.463C484.38 36.851 484.821 35.0883 485.325 33.175C485.657 32.8866 486.027 32.645 486.425 32.457C486.801 32.2815 487.193 32.1425 487.596 32.042C488.01 31.8891 488.441 31.7883 488.88 31.742C489.284 31.7422 489.688 31.7676 490.089 31.818C490.463 31.8727 490.831 31.9611 491.189 32.082C491.562 32.2052 491.908 32.3975 492.209 32.649C492.058 33.0017 491.881 33.4927 491.68 34.122C491.479 34.7514 491.279 35.418 491.08 36.122C490.88 36.928 490.628 37.759 490.325 38.615C491.02 37.6585 491.764 36.7383 492.554 35.858C493.38 34.9313 494.29 34.0839 495.274 33.327C496.238 32.5822 497.291 31.9604 498.409 31.476C499.481 31.0051 500.638 30.7607 501.809 30.758C502.733 30.7472 503.635 31.0391 504.378 31.589C505.165 32.183 505.778 32.9773 506.153 33.889C506.611 35.006 506.866 36.1955 506.908 37.402C506.965 38.9088 506.774 40.4146 506.341 41.859L505.51 45.183C505.258 46.2403 504.943 47.4867 504.566 48.922C504.189 50.3573 503.722 51.9314 503.166 53.644C502.884 54.5733 502.768 55.5454 502.826 56.515C502.901 57.321 503.392 57.724 504.299 57.724C505.593 57.5509 506.797 56.9686 507.736 56.062C509.239 54.8433 510.641 53.5056 511.929 52.062C513.339 50.5007 514.672 48.9007 515.929 47.262C517.186 45.6233 518.143 44.3013 518.8 43.296C519.119 42.7713 519.559 42.331 520.084 42.012C520.22 41.916 520.38 41.8582 520.546 41.8449C520.712 41.8315 520.878 41.863 521.028 41.936C521.255 42.0873 521.368 42.4273 521.368 42.956C521.319 43.659 521.114 44.3423 520.768 44.956C520.415 45.6614 519.874 46.5947 519.144 47.756C518.414 48.9174 517.545 50.1507 516.538 51.456C515.531 52.7654 514.448 54.0873 513.289 55.422C512.17 56.7172 510.958 57.9291 509.663 59.048C508.511 60.0556 507.258 60.9416 505.924 61.692C504.855 62.3267 503.642 62.6781 502.399 62.713Z" fill="url(#paint0_linear_61_458)"/>
<path d="M79.56 73.415C75.5249 75.9696 70.8517 77.3357 66.076 77.357C60.7093 77.3219 55.488 75.6086 51.144 72.457C45.3794 75.722 38.8568 77.4119 32.232 77.357C14.431 77.358 0 65.813 0 51.572C0 37.331 14.431 25.786 32.232 25.786C33.8648 25.7854 35.4961 25.8836 37.117 26.08C41.254 10.9 52.657 0 66.076 0C79.42 0 90.77 10.781 94.966 25.823C95.54 25.799 96.1173 25.7867 96.698 25.786C114.498 25.786 128.93 37.33 128.93 51.572C128.93 65.814 114.5 77.358 96.7 77.358C90.7577 77.395 84.8888 76.0449 79.56 73.415Z" fill="url(#paint1_linear_61_458)"/>
</g>
<defs>
<linearGradient id="paint0_linear_61_458" x1="337.864" y1="2.93604" x2="337.864" y2="75.1783" gradientUnits="userSpaceOnUse">
<stop stop-color="#44A9FC"/>
<stop offset="1" stop-color="#2189DE"/>
</linearGradient>
<linearGradient id="paint1_linear_61_458" x1="64.465" y1="0" x2="64.465" y2="77.3587" gradientUnits="userSpaceOnUse">
<stop stop-color="#44A9FC"/>
<stop offset="1" stop-color="#2189DE"/>
</linearGradient>
<clipPath id="clip0_61_458">
<rect width="521.361" height="77.357" fill="white"/>
</clipPath>
</defs>
</svg>
