<svg width="32" height="32" viewBox="0 0 32 32" fill="none" xmlns="http://www.w3.org/2000/svg">
<g clip-path="url(#clip0_92_268)">
<path d="M0 15.988C0 12.5434 1.36848 9.23992 3.8042 6.8042C6.23992 4.36848 9.54341 3 12.988 3C15.3116 2.99936 17.5927 3.62235 19.5935 4.80383C21.5943 5.98532 23.2415 7.68203 24.363 9.71704C24.1461 9.87723 23.9537 10.0683 23.792 10.2841L21.541 13.2841C20.9644 11.467 19.8248 9.88041 18.2871 8.75366C16.7494 7.62691 14.8934 7.01834 12.9871 7.01599C10.6087 7.0189 8.32849 7.96509 6.64673 9.64685C4.96497 11.3286 4.01902 13.6087 4.01611 15.9871C4.01902 18.3654 4.96497 20.6455 6.64673 22.3273C8.32849 24.009 10.6087 24.9551 12.9871 24.958C14.8934 24.9557 16.7494 24.3472 18.2871 23.2205C19.8248 22.0937 20.9644 20.5071 21.541 18.6901L23.792 21.6901C23.9537 21.9059 24.1461 22.0969 24.363 22.2571C23.2415 24.2921 21.5943 25.9888 19.5935 27.1703C17.5927 28.3518 15.3116 28.9746 12.988 28.974C9.54375 28.974 6.24035 27.6059 3.80469 25.1707C1.36902 22.7354 0.00053038 19.4323 0 15.988ZM5.89209 15.988C5.89209 14.105 6.63993 12.2992 7.97144 10.9677C9.30294 9.63614 11.1089 8.88806 12.9919 8.88806C14.711 8.8899 16.3712 9.5149 17.6646 10.6472C18.9579 11.7795 19.7968 13.3423 20.0259 15.046H17.856C17.6368 13.9163 17.0318 12.898 16.1445 12.1652C15.2572 11.4324 14.1427 11.0307 12.9919 11.0291C11.6785 11.0306 10.4194 11.5531 9.49072 12.4818C8.56201 13.4105 8.03967 14.6696 8.03809 15.983C8.03994 17.2963 8.56231 18.5554 9.49097 19.484C10.4196 20.4127 11.6786 20.9352 12.9919 20.937C14.1427 20.9353 15.2572 20.5338 16.1445 19.801C17.0318 19.0682 17.6368 18.0498 17.856 16.92H20.0259C19.7966 18.6236 18.9577 20.1863 17.6643 21.3186C16.371 22.4509 14.7109 23.076 12.9919 23.078C11.1106 23.078 9.30632 22.3314 7.9751 21.0021C6.64388 19.6727 5.89474 17.8693 5.89209 15.988ZM26.042 20.942C25.8963 20.942 25.7526 20.9081 25.6223 20.843C25.492 20.7779 25.3786 20.6834 25.291 20.567L22.2791 16.55C22.1573 16.3878 22.0913 16.1904 22.0913 15.9875C22.0913 15.7847 22.1573 15.5873 22.2791 15.425L25.291 11.4081C25.3786 11.2917 25.492 11.1972 25.6223 11.1321C25.7526 11.067 25.8963 11.0331 26.042 11.0331H31.062C31.2362 11.033 31.407 11.0815 31.5552 11.173C31.7034 11.2645 31.8229 11.3953 31.9009 11.551C31.9786 11.7068 32.0116 11.8812 31.9961 12.0546C31.9806 12.228 31.9171 12.3936 31.813 12.5331L29.2219 15.9871L31.813 19.441C31.9171 19.5805 31.9806 19.7462 31.9961 19.9196C32.0116 20.0929 31.9786 20.2673 31.9009 20.4231C31.8229 20.5788 31.7034 20.7097 31.5552 20.8011C31.407 20.8926 31.2362 20.9411 31.062 20.941L26.042 20.942ZM9.90796 15.988C9.90875 15.1715 10.2336 14.3887 10.811 13.8114C11.3885 13.2341 12.1715 12.9096 12.988 12.9091C13.6404 12.91 14.2757 13.1177 14.8025 13.5024C15.3293 13.8871 15.7205 14.429 15.9199 15.05H12.988C12.8649 15.05 12.743 15.0743 12.6292 15.1215C12.5153 15.1686 12.4118 15.2377 12.3247 15.3248C12.2376 15.4119 12.1685 15.5153 12.1213 15.6292C12.0742 15.743 12.05 15.8649 12.05 15.988C12.05 16.1112 12.0742 16.2332 12.1213 16.347C12.1685 16.4609 12.2376 16.5643 12.3247 16.6514C12.4118 16.7385 12.5153 16.8075 12.6292 16.8546C12.743 16.9018 12.8649 16.926 12.988 16.926H15.9199C15.7205 17.5471 15.3293 18.0891 14.8025 18.4738C14.2757 18.8585 13.6404 19.0661 12.988 19.067C12.1716 19.0662 11.3887 18.7417 10.8113 18.1644C10.2339 17.5872 9.90902 16.8045 9.90796 15.988Z" fill="#44A9FC"/>
</g>
<defs>
<clipPath id="clip0_92_268">
<rect width="32" height="32" fill="white"/>
</clipPath>
</defs>
</svg>
