<svg width="150" height="150" viewBox="0 0 150 150" fill="none" xmlns="http://www.w3.org/2000/svg">
<g clip-path="url(#clip0_206_214)">
<path d="M150 0H0V150H150V0Z" fill="#A0D3FD"/>
<path d="M75 76.5C97.782 76.5 116.25 89.484 116.25 100.875C116.25 112.266 97.782 117.75 75 117.75C52.218 117.75 33.75 112.266 33.75 100.875C33.75 89.484 52.218 76.5 75 76.5Z" fill="#3399EE"/>
<path d="M75 33C78.7084 33 82.3335 34.0997 85.4169 36.1599C88.5004 38.2202 90.9036 41.1486 92.3227 44.5747C93.7419 48.0008 94.1132 51.7708 93.3897 55.4079C92.6663 59.0451 90.8805 62.386 88.2583 65.0083C85.636 67.6305 82.2951 69.4163 78.6579 70.1397C75.0208 70.8632 71.2508 70.4919 67.8247 69.0727C64.3986 67.6536 61.4702 65.2504 59.4099 62.1669C57.3497 59.0835 56.25 55.4584 56.25 51.75C56.25 46.7772 58.2254 42.0081 61.7417 38.4917C65.2581 34.9754 70.0272 33 75 33Z" fill="#3399EE"/>
</g>
<defs>
<clipPath id="clip0_206_214">
<rect width="150" height="150" fill="white"/>
</clipPath>
</defs>
</svg>
