<svg width="32" height="33" viewBox="0 0 32 33" fill="none" xmlns="http://www.w3.org/2000/svg">
<g clip-path="url(#clip0_92_264)">
<path d="M17.563 32.0068C17.3972 32.0068 17.2383 31.9409 17.1211 31.8237C17.0039 31.7065 16.938 31.5476 16.938 31.3818V23.9488C16.9382 23.4563 17.0354 22.9688 17.2241 22.5139C17.4129 22.059 17.6896 21.6458 18.0381 21.2978L19.5581 19.7778C19.7816 19.5548 20.0525 19.385 20.3506 19.2811C20.6487 19.1772 20.9664 19.142 21.28 19.1778L22.3411 19.2418C22.4929 19.2724 22.6498 19.2651 22.7981 19.2204C22.9464 19.1758 23.0813 19.0952 23.1909 18.9858L26.0271 16.1488C26.2483 15.9283 26.5478 15.8045 26.8601 15.8045C27.1724 15.8045 27.4719 15.9283 27.6931 16.1488C27.803 16.2578 27.8901 16.3876 27.9495 16.5306C28.0089 16.6736 28.0394 16.8269 28.0391 16.9818C28.0395 17.1366 28.0091 17.2901 27.9497 17.4331C27.8903 17.5761 27.8032 17.7058 27.6931 17.8148L23.6521 21.8568C23.565 21.9438 23.4957 22.0472 23.4485 22.161C23.4013 22.2747 23.3772 22.3966 23.3772 22.5197C23.3772 22.6429 23.4013 22.7649 23.4485 22.8786C23.4957 22.9924 23.565 23.0958 23.6521 23.1828C23.7391 23.27 23.8423 23.3391 23.9561 23.3863C24.0698 23.4335 24.1918 23.4578 24.3149 23.4579C24.4381 23.4579 24.5601 23.4335 24.6738 23.3863C24.7876 23.3391 24.8911 23.27 24.978 23.1828L29.019 19.1408C29.3037 18.8581 29.5295 18.5217 29.6831 18.1511C29.8368 17.7805 29.9153 17.383 29.9141 16.9818C29.9151 16.5806 29.8365 16.1832 29.6829 15.8126C29.5292 15.442 29.3036 15.1056 29.019 14.8228C28.7637 14.5669 28.4646 14.3586 28.136 14.2079V10.4618C28.136 10.1884 28.1942 9.91827 28.3069 9.66928C28.4196 9.42029 28.5842 9.19823 28.7896 9.01791C28.995 8.8376 29.2366 8.70327 29.4981 8.62375C29.7595 8.54422 30.0349 8.52143 30.3059 8.55685C30.7678 8.61677 31.1922 8.84244 31.5 9.19199C31.8078 9.54153 31.978 9.99102 31.979 10.4568L32.002 20.7898C32.0028 21.2038 31.922 21.614 31.7639 21.9967C31.6059 22.3794 31.3738 22.727 31.0811 23.0197L24.814 29.2868V31.3808C24.814 31.5466 24.7481 31.7055 24.6309 31.8227C24.5137 31.9399 24.3547 32.0058 24.189 32.0058L17.563 32.0068ZM7.81299 32.0068C7.64723 32.0068 7.48831 31.9409 7.3711 31.8237C7.25389 31.7065 7.18799 31.5476 7.18799 31.3818V29.2878L0.920905 23.0208C0.628159 22.7281 0.396092 22.3803 0.238043 21.9977C0.0799952 21.615 -0.000822032 21.2049 6.30349e-06 20.7909L0.0229555 10.4579C0.0243615 9.99224 0.194742 9.54291 0.502448 9.19345C0.810153 8.844 1.23435 8.61815 1.69605 8.55783C1.96706 8.5224 2.24242 8.5452 2.50391 8.62473C2.7654 8.70425 3.00701 8.8387 3.21241 9.01901C3.41781 9.19933 3.58235 9.42139 3.69507 9.67038C3.8078 9.91937 3.866 10.1895 3.86597 10.4629V14.2088C3.53735 14.3596 3.23825 14.5678 2.98292 14.8238C2.69836 15.1066 2.47273 15.4431 2.3191 15.8137C2.16547 16.1843 2.08688 16.5816 2.0879 16.9828C2.08671 17.384 2.16522 17.7814 2.31885 18.1521C2.47249 18.5227 2.69823 18.8591 2.98292 19.1418L7.02393 23.1838C7.11091 23.271 7.21436 23.3402 7.32813 23.3874C7.4419 23.4346 7.56385 23.4589 7.68702 23.4588C7.81003 23.4588 7.93182 23.4345 8.04542 23.3873C8.15901 23.3401 8.2623 23.2709 8.34913 23.1838C8.43627 23.0968 8.50533 22.9934 8.5525 22.8796C8.59966 22.7658 8.62379 22.644 8.62379 22.5208C8.62379 22.3977 8.59966 22.2757 8.5525 22.162C8.50533 22.0482 8.43627 21.9448 8.34913 21.8578L4.30811 17.8158C4.19828 17.7067 4.11123 17.5769 4.05201 17.4339C3.99278 17.2909 3.96234 17.1375 3.9629 16.9828C3.96251 16.828 3.99279 16.6747 4.05201 16.5317C4.11123 16.3887 4.19841 16.2589 4.30811 16.1497C4.52946 15.9292 4.82917 15.8055 5.14161 15.8055C5.45405 15.8055 5.75375 15.9292 5.9751 16.1497L8.81104 18.9858C8.92032 19.0954 9.05498 19.1763 9.20313 19.2212C9.35128 19.266 9.50819 19.2734 9.65992 19.2428L10.7219 19.1788C11.0356 19.1429 11.3535 19.1783 11.6516 19.2822C11.9498 19.3861 12.2206 19.5558 12.4441 19.7788L13.9629 21.2988C14.3114 21.6467 14.5881 22.06 14.7769 22.5149C14.9656 22.9697 15.0628 23.4573 15.063 23.9498V31.3828C15.063 31.4649 15.0469 31.5463 15.0154 31.6222C14.9839 31.6981 14.9378 31.767 14.8796 31.825C14.8215 31.8831 14.7525 31.9292 14.6765 31.9605C14.6006 31.9919 14.5192 32.0079 14.437 32.0078L7.81299 32.0068ZM11.061 13.8818C10.9405 13.8817 10.8215 13.8543 10.7131 13.8014C10.6048 13.7485 10.5098 13.6715 10.4356 13.5765C10.3613 13.4815 10.3097 13.3708 10.2847 13.2529C10.2596 13.135 10.2619 13.0128 10.291 12.8958L11.0291 9.93784C11.2004 9.25012 11.5968 8.63945 12.1553 8.20309C12.7138 7.76674 13.4023 7.5297 14.1111 7.52976H17.8921C18.6008 7.5297 19.2892 7.76674 19.8477 8.20309C20.4062 8.63945 20.8027 9.25012 20.9741 9.93784L21.7119 12.8958C21.7411 13.0128 21.7433 13.135 21.7183 13.2529C21.6932 13.3708 21.6416 13.4815 21.5674 13.5765C21.4932 13.6715 21.3982 13.7485 21.2898 13.8014C21.1814 13.8543 21.0625 13.8817 20.9419 13.8818H11.061ZM13.395 3.90683C13.2529 3.56422 13.1796 3.19695 13.1795 2.82602C13.1793 2.45509 13.252 2.08772 13.3938 1.74496C13.5356 1.40221 13.7437 1.09072 14.0059 0.828339C14.2681 0.56596 14.5795 0.357831 14.9221 0.21579C15.6142 -0.0706926 16.3916 -0.070604 17.0837 0.215912C17.7758 0.502429 18.3259 1.05189 18.613 1.74374C18.8995 2.43572 18.8993 3.21318 18.6128 3.90512C18.3263 4.59706 17.7768 5.14691 17.085 5.43381C16.7424 5.57625 16.3749 5.64959 16.0039 5.64975C15.4453 5.64983 14.8991 5.48429 14.4346 5.17404C13.97 4.8638 13.609 4.42287 13.395 3.90683Z" fill="#44A9FC"/>
</g>
<defs>
<clipPath id="clip0_92_264">
<rect width="32" height="32.007" fill="white"/>
</clipPath>
</defs>
</svg>
