<svg width="33" height="32" viewBox="0 0 33 32" fill="none" xmlns="http://www.w3.org/2000/svg">
<g clip-path="url(#clip0_92_260)">
<path d="M0.239014 17.063C0.0851749 16.8912 0 16.6686 0 16.438C0 16.2074 0.0851749 15.9848 0.239014 15.813C0.525014 15.494 7.395 8.00098 16 8.00098C24.605 8.00098 31.476 15.494 31.762 15.813C31.9158 15.9848 32.001 16.2074 32.001 16.438C32.001 16.6686 31.9158 16.8912 31.762 17.063C31.476 17.382 24.606 24.876 16 24.876C7.394 24.876 0.525014 17.381 0.239014 17.063ZM9.43896 16.438C9.44108 18.1777 10.1331 19.8455 11.3633 21.0757C12.5934 22.3058 14.2613 22.9979 16.001 23C17.7409 22.9981 19.409 22.3062 20.6394 21.076C21.8698 19.8459 22.5618 18.1779 22.564 16.438C22.5621 14.6979 21.87 13.0297 20.6396 11.7993C19.4092 10.5689 17.741 9.87685 16.001 9.875C14.2609 9.87685 12.5927 10.5689 11.3623 11.7993C10.1319 13.0297 9.44082 14.6979 9.43896 16.438ZM11.314 16.438C11.3153 15.1952 11.8096 14.0037 12.6882 13.1249C13.5669 12.246 14.7582 11.7516 16.001 11.75C16.7393 11.7551 17.4657 11.9366 18.1199 12.2791C17.755 12.5376 17.4574 12.8798 17.252 13.277C17.0465 13.6742 16.9392 14.1148 16.939 14.562C16.9382 15.0047 17.0425 15.4412 17.2432 15.8358C17.4438 16.2304 17.7351 16.5717 18.0933 16.8319C18.4514 17.0921 18.8662 17.2637 19.3035 17.3325C19.7408 17.4014 20.1881 17.3656 20.6089 17.228C20.4234 18.3168 19.8594 19.3051 19.0164 20.0187C18.1733 20.7322 17.1055 21.1251 16.001 21.1281C14.7577 21.1267 13.5657 20.6321 12.6868 19.7528C11.8078 18.8735 11.3148 17.6813 11.314 16.438Z" fill="#44A9FC"/>
</g>
<defs>
<clipPath id="clip0_92_260">
<rect width="33" height="32" fill="white"/>
</clipPath>
</defs>
</svg>
